<svg id="image" xmlns="http://www.w3.org/2000/svg" xmlns:xlink="http://www.w3.org/1999/xlink" width="360" height="322" viewBox="230 168 360 322">
  <defs>
    <style>
      .cls-1 {
        fill: #fff;
        fill-rule: evenodd;
      }
    </style>
  </defs>
  <path class="cls-1" d="M253.252,403.008L266.7,421.12h5.346V394.037h-5.5v17.789l-13.321-17.789h-5.47V421.12h5.49V403.008Zm132.189-8.971H362.5v5.747h8.656V421.12h5.826V399.784h8.459v-5.747Zm-1.665,92.031h11.372v-51.1H383.776v51.1Zm-59.361-83.06,13.448,18.112h5.347V394.037h-5.5v17.789l-13.321-17.789h-5.469V421.12h5.492V403.008Zm25.68,69.033-10.826-37.073H330.2l-10.765,36.937-9.827-36.937H298.483l14.459,51.1H325.22l9.529-33.668,9.465,33.668h12.331l14.536-51.1h-11.12Zm-81.123-17.012c-7.382-1.212-12.152-2.581-12.152-6.019,0-3.973,5.309-5.5,12.434-5.5,6.624,0,13.267,2.524,15.636,3.522l3.633-8.847a57.3,57.3,0,0,0-19.789-3.934c-11.041,0-22.773,5.384-22.773,15.363,0,8.093,5.707,12.224,20.355,14.745,10.327,1.776,16.014,2.756,15.854,7.195-0.091,2.447-1.981,6.548-13.622,6.548a36.108,36.108,0,0,1-18.252-4.774l-4.837,8.732a50.069,50.069,0,0,0,22.355,5.411c16.256,0,24.849-5.63,24.849-16.284,0-6.176-2.084-12.609-23.691-16.156M298.5,394.037h-6.026V421.12H298.5V394.037ZM473.061,421.12V394.037h-5.5v17.789l-13.323-17.789h-5.469V421.12h5.49V403.008l13.452,18.112h5.345ZM426.33,416.1H410.765v-6.351h14.393v-4.9H410.765v-5.845H426.33v-4.971l-21.061.007V421.12l21.061-.011V416.1ZM570.46,479.92H572.8v6.148h1.479V479.92h2.285v-1.457H570.46v1.457Zm-17.424-86.8a14.454,14.454,0,1,0,14.425,14.455,14.457,14.457,0,0,0-14.425-14.455m0,22.884a8.431,8.431,0,1,1,8.414-8.431,8.432,8.432,0,0,1-8.414,8.431M584.3,478.463l-1.918,5.563-1.913-5.563h-2.11v7.6h1.359v-5.837L581.706,486l0.023,0.069h1.312l0.023-.069,1.986-5.768v5.837h1.359v-7.6H584.3Zm-29.42-23.357H531.015V434.968H520.448v51.1h10.567V465.684h23.866v20.384h10.576v-51.1H554.881v20.138Zm-147.268-9.294h16.33v40.256h10.994V445.812H450.9V434.968H407.613v10.844Zm78.811-1.152a16.39,16.39,0,0,1,14.028,7.933l8.313-7.229a27.273,27.273,0,1,0,0,30.413l-8.313-7.228a16.392,16.392,0,0,1-14.028,7.932,15.913,15.913,0,1,1,0-31.821m20.747-50.623h-11.2V421.12h11.2a13.547,13.547,0,1,0,0-27.083m0.275,21.391h-5.912v-15.7h5.912a7.851,7.851,0,0,1,0,15.7M318.589,174.041H278.705a46.79,46.79,0,0,0-46.792,46.79v88.9a46.79,46.79,0,0,0,46.792,46.79h39.884a1.338,1.338,0,0,0,1.34-1.339V175.377A1.337,1.337,0,0,0,318.589,174.041Zm-13.373,167.77H278.705a32.073,32.073,0,0,1-32.077-32.078v-88.9a32.07,32.07,0,0,1,32.077-32.08h26.511V341.811ZM277.48,211.627a17.158,17.158,0,1,1-17.157,17.158A17.157,17.157,0,0,1,277.48,211.627Zm90.126-37.586H339.374a1.187,1.187,0,0,0-1.187,1.189V355.184a1.337,1.337,0,0,0,1.337,1.339h28.082a46.79,46.79,0,0,0,46.79-46.79v-88.9A46.79,46.79,0,0,0,367.606,174.041Zm6.682,118.815A18.45,18.45,0,1,1,392.737,274.4,18.451,18.451,0,0,1,374.288,292.856Zm70.848,63.667v-31.37c3.242-2.665,15.5-13.206,28.462-24.354,11.655-10.026,23.3-20.086,35.176-29.848,8.951-7.358,25.948-20.866,26.49-34.1,0.636-15.566-10.4-25.656-26.889-25.656-9.825,0-21.364,5.46-28.341,11.405-7.092,6.043-15.956,13.618-15.956,13.618l-25.835-28c21.934-24.583,45.511-37.044,70.09-37.044,52.377-1.3,91.844,57.071,52.01,102.84a392.866,392.866,0,0,1-47.735,44.116H581v38.4H445.136Z"/>
</svg>
